<?xml version="1.0" encoding="UTF-8"?><svg id="Ebene_1" xmlns="http://www.w3.org/2000/svg" xmlns:xlink="http://www.w3.org/1999/xlink" viewBox="0 0 250 120"><defs><style>.cls-1{fill:#001c77;}.cls-2{fill:url(#Unbenannter_Verlauf_5-3);}.cls-3{fill:url(#Unbenannter_Verlauf_5-6);}.cls-4{fill:url(#Unbenannter_Verlauf_5-5);}.cls-5{fill:url(#Unbenannter_Verlauf_5-2);}.cls-6{fill:url(#Unbenannter_Verlauf_5-7);}.cls-7{fill:url(#Unbenannter_Verlauf_5-4);}.cls-8{fill:url(#Unbenannter_Verlauf_5);}</style><linearGradient id="Unbenannter_Verlauf_5" x1="231.62" y1="46.06" x2="23.3" y2="46.06" gradientUnits="userSpaceOnUse"><stop offset="0" stop-color="#0228a0"/><stop offset=".43" stop-color="#0095d6"/><stop offset=".61" stop-color="#00c6c1"/><stop offset=".84" stop-color="#60d6bb"/><stop offset="1" stop-color="#a1e2b7"/></linearGradient><linearGradient id="Unbenannter_Verlauf_5-2" x1="231.62" y1="51.68" x2="23.3" y2="51.68" xlink:href="#Unbenannter_Verlauf_5"/><linearGradient id="Unbenannter_Verlauf_5-3" y1="46.06" y2="46.06" xlink:href="#Unbenannter_Verlauf_5"/><linearGradient id="Unbenannter_Verlauf_5-4" x1="231.62" y1="40.4" x2="23.3" y2="40.4" xlink:href="#Unbenannter_Verlauf_5"/><linearGradient id="Unbenannter_Verlauf_5-5" x1="231.62" y1="33.59" x2="23.3" y2="33.59" xlink:href="#Unbenannter_Verlauf_5"/><linearGradient id="Unbenannter_Verlauf_5-6" x1="231.62" y1="55.73" x2="23.3" y2="55.73" xlink:href="#Unbenannter_Verlauf_5"/><linearGradient id="Unbenannter_Verlauf_5-7" x1="231.62" y1="56.72" x2="23.3" y2="56.72" xlink:href="#Unbenannter_Verlauf_5"/></defs><path class="cls-1" d="m27.57,86.57c-.4-.39-.87-.7-1.42-.91-.55-.22-1.14-.33-1.77-.33s-1.23.11-1.77.33c-.54.22-1.02.52-1.42.92-.41.4-.72.86-.94,1.39s-.33,1.1-.33,1.72.11,1.2.33,1.73c.22.53.53.99.94,1.39.41.4.88.7,1.42.92s1.14.33,1.77.33,1.23-.11,1.77-.33c.54-.22,1.02-.52,1.42-.91.4-.39.71-.85.94-1.38s.34-1.11.34-1.74-.11-1.21-.34-1.74-.54-.99-.94-1.38Zm.35,4.62c-.19.46-.46.86-.8,1.2s-.75.61-1.22.8c-.47.19-.97.28-1.52.28s-1.06-.09-1.52-.28c-.47-.19-.87-.45-1.22-.8-.35-.34-.62-.74-.81-1.2-.19-.46-.29-.96-.29-1.5s.1-1.05.29-1.5c.19-.45.46-.85.81-1.2.35-.34.75-.61,1.22-.8s.97-.28,1.52-.28,1.06.09,1.52.28.87.45,1.22.8.61.74.8,1.2c.19.45.29.96.29,1.5s-.1,1.04-.29,1.5Z"/><polygon class="cls-1" points="37.39 92.85 31.55 85.39 31.02 85.39 31.02 93.99 31.65 93.99 31.65 86.53 37.5 93.99 38.02 93.99 38.02 85.39 37.39 85.39 37.39 92.85"/><polygon class="cls-1" points="41.64 89.9 46.22 89.9 46.22 89.35 41.64 89.35 41.64 85.96 46.76 85.96 46.76 85.39 41.01 85.39 41.01 93.99 46.94 93.99 46.94 93.42 41.64 93.42 41.64 89.9"/><polygon class="cls-1" points="53.63 85.39 52.04 85.39 52.04 93.99 58.13 93.99 58.13 92.64 53.63 92.64 53.63 85.39"/><rect class="cls-1" x="59.39" y="85.39" width="1.6" height="8.59"/><polygon class="cls-1" points="63.31 93.99 64.9 93.99 64.9 90.68 69.05 90.68 69.05 89.36 64.9 89.36 64.9 86.74 69.58 86.74 69.58 85.39 63.31 85.39 63.31 93.99"/><polygon class="cls-1" points="72.72 90.28 76.87 90.28 76.87 88.97 72.72 88.97 72.72 86.74 77.4 86.74 77.4 85.39 71.13 85.39 71.13 93.99 77.57 93.99 77.57 92.64 72.72 92.64 72.72 90.28"/><path class="cls-1" d="m89.69,86.57c-.4-.39-.87-.7-1.42-.91-.55-.22-1.14-.33-1.77-.33s-1.23.11-1.77.33c-.54.22-1.02.52-1.42.92-.41.4-.72.86-.94,1.39s-.33,1.1-.33,1.72.11,1.2.33,1.73c.22.53.53.99.94,1.39.41.4.88.7,1.42.92s1.14.33,1.77.33,1.23-.11,1.77-.33c.54-.22,1.02-.52,1.42-.91.4-.39.71-.85.94-1.38s.34-1.11.34-1.74-.11-1.21-.34-1.74-.54-.99-.94-1.38Zm.35,4.62c-.19.46-.46.86-.8,1.2s-.75.61-1.22.8c-.47.19-.97.28-1.52.28s-1.06-.09-1.52-.28c-.47-.19-.87-.45-1.22-.8-.35-.34-.62-.74-.81-1.2-.19-.46-.29-.96-.29-1.5s.1-1.05.29-1.5c.19-.45.46-.85.81-1.2.35-.34.75-.61,1.22-.8s.97-.28,1.52-.28,1.06.09,1.52.28.87.45,1.22.8.61.74.8,1.2c.19.45.29.96.29,1.5s-.1,1.04-.29,1.5Z"/><polygon class="cls-1" points="99.51 92.85 93.66 85.39 93.14 85.39 93.14 93.99 93.76 93.99 93.76 86.53 99.62 93.99 100.13 93.99 100.13 85.39 99.51 85.39 99.51 92.85"/><polygon class="cls-1" points="103.75 89.9 108.33 89.9 108.33 89.35 103.75 89.35 103.75 85.96 108.87 85.96 108.87 85.39 103.13 85.39 103.13 93.99 109.06 93.99 109.06 93.42 103.75 93.42 103.75 89.9"/><path class="cls-1" d="m119.64,85.76c-.54-.24-1.2-.36-1.96-.36h-3.54v8.59h1.6v-2.48h1.94c.76,0,1.41-.12,1.96-.37.54-.25.96-.6,1.26-1.06.29-.45.44-1,.44-1.63s-.15-1.19-.44-1.65c-.3-.46-.71-.81-1.26-1.05Zm-.44,3.95c-.36.3-.89.45-1.59.45h-1.87v-3.41h1.87c.7,0,1.23.15,1.59.45.36.3.53.72.53,1.26s-.18.96-.53,1.26Z"/><polygon class="cls-1" points="124.54 85.39 122.94 85.39 122.94 93.99 129.03 93.99 129.03 92.64 124.54 92.64 124.54 85.39"/><path class="cls-1" d="m132.96,85.39l-3.87,8.59h1.63l.85-1.99h4.3l.85,1.99h1.68l-3.88-8.59h-1.57Zm-.84,5.35l1.62-3.76,1.61,3.76h-3.22Z"/><polygon class="cls-1" points="145.55 91.22 140.81 85.39 139.5 85.39 139.5 93.99 141.08 93.99 141.08 88.16 145.81 93.99 147.12 93.99 147.12 85.39 145.55 85.39 145.55 91.22"/><polygon class="cls-1" points="151.04 90.28 155.19 90.28 155.19 88.97 151.04 88.97 151.04 86.74 155.72 86.74 155.72 85.39 149.44 85.39 149.44 93.99 155.89 93.99 155.89 92.64 151.04 92.64 151.04 90.28"/><polygon class="cls-1" points="156.56 86.74 159.41 86.74 159.41 93.99 161.01 93.99 161.01 86.74 163.86 86.74 163.86 85.39 156.56 85.39 156.56 86.74"/><path class="cls-1" d="m175.39,86.57c-.4-.39-.87-.7-1.42-.91-.55-.22-1.14-.33-1.77-.33s-1.23.11-1.77.33c-.54.22-1.02.52-1.42.92-.41.4-.72.86-.94,1.39s-.33,1.1-.33,1.72.11,1.2.33,1.73c.22.53.53.99.94,1.39.41.4.88.7,1.42.92s1.14.33,1.77.33,1.23-.11,1.77-.33c.54-.22,1.02-.52,1.42-.91.4-.39.71-.85.94-1.38s.34-1.11.34-1.74-.11-1.21-.34-1.74-.54-.99-.94-1.38Zm.35,4.62c-.19.46-.46.86-.8,1.2s-.75.61-1.22.8c-.47.19-.97.28-1.52.28s-1.06-.09-1.52-.28c-.47-.19-.87-.45-1.22-.8-.35-.34-.62-.74-.81-1.2-.19-.46-.29-.96-.29-1.5s.1-1.05.29-1.5c.19-.45.46-.85.81-1.2.35-.34.75-.61,1.22-.8s.97-.28,1.52-.28,1.06.09,1.52.28.87.45,1.22.8.61.74.8,1.2c.19.45.29.96.29,1.5s-.1,1.04-.29,1.5Z"/><polygon class="cls-1" points="185.21 92.85 179.37 85.39 178.84 85.39 178.84 93.99 179.47 93.99 179.47 86.53 185.32 93.99 185.84 93.99 185.84 85.39 185.21 85.39 185.21 92.85"/><polygon class="cls-1" points="190.09 90.28 194.24 90.28 194.24 88.97 190.09 88.97 190.09 86.74 194.77 86.74 194.77 85.39 188.49 85.39 188.49 93.99 194.94 93.99 194.94 92.64 190.09 92.64 190.09 90.28"/><polygon class="cls-1" points="211.14 85.39 208.94 91.96 206.77 85.39 205.3 85.39 203.08 91.93 200.94 85.39 199.28 85.39 202.13 93.99 203.85 93.99 206 87.63 208.12 93.99 209.81 93.99 212.66 85.39 211.14 85.39"/><path class="cls-1" d="m216.34,85.39l-3.87,8.59h1.63l.85-1.99h4.3l.85,1.99h1.68l-3.88-8.59h-1.57Zm-.84,5.35l1.62-3.76,1.61,3.76h-3.22Z"/><polygon class="cls-1" points="229.44 85.39 227.87 85.39 225.34 89.58 222.8 85.39 221.11 85.39 224.48 90.95 224.48 93.99 226.07 93.99 226.07 90.97 229.44 85.39"/><path class="cls-8" d="m141.95,31.87h0c3.45,0,6.58,2.05,7.95,5.21l4.55,10.46,3.84-9.68c1.43-3.62,4.93-6,8.83-6h0l-12.27,28.36-12.9-28.36Zm-3.51,28.36h0l-12.33-28.36h0c3.92,0,7.47,2.31,9.06,5.9l7.24,16.37c1.27,2.87-.83,6.1-3.97,6.1Z"/><path class="cls-5" d="m220.68,37.17l-5.86,13.11-6.49-14.46c-1.08-2.4-3.46-3.95-6.09-3.95h-3.09l12.39,25.75-6.19,13.86h0c3.92,0,7.46-2.32,9.03-5.92l14.67-33.69h-.21c-3.53,0-6.73,2.07-8.16,5.29Z"/><path class="cls-2" d="m182.7,31.87s-.04,0-.07,0c-7.85,0-14.22,6.39-14.18,14.25.04,7.88,6.73,14.12,14.6,14.12h8.75c2.77,0,5.01-2.24,5.01-5.01v-8.75c0-7.88-6.24-14.57-14.12-14.6Zm9.1,23.36h-8.75c-5.27,0-9.58-4.1-9.6-9.14-.01-2.46.94-4.78,2.67-6.52,1.74-1.74,4.05-2.7,6.51-2.7,5.04.02,9.18,4.33,9.18,9.6v8.76Z"/><path class="cls-7" d="m19.79,59.05s19.7-28.13,56.88-35.8c29.39-6.06,34.38,7.62,29.39,14.49-7.22,9.93-24.86,11.41-40.56,9.01,19.46-1.1,37.29-6.68,34.6-15.64-1.65-5.51-13.74-6.79-26.43-4.77-26.72,4.25-53.88,32.71-53.88,32.71Z"/><path class="cls-4" d="m98.66,31.55c-.85-2.84-6.3-4.6-14.22-4.6-3.31,0-6.86.3-10.54.88-9.99,1.59-20.12,6.72-28.81,12.42,8.11-4.54,17.55-8.62,27.12-10.14,4.98-.79,9.29-1.19,12.8-1.19,6.59,0,10.5,1.43,11.61,4.24.41,1.05.6,2.44-.16,3.98.62-.53,1.13-1.06,1.51-1.61.89-1.27,1.12-2.58.7-3.98Z"/><path class="cls-3" d="m116.17,48.13s-19.62,17.5-48.73,16.23c-29.12-1.27-33.36-16.18-14.42-17.33,0,0-9.46,7.4,9.14,13.21,27.44,8.57,54.01-12.11,54.01-12.11Z"/><path class="cls-6" d="m62.61,58.81c4.28,1.34,8.81,2.01,13.48,2.01,11.85,0,22.68-4.32,30.01-8.2-8.49,2.96-20.66,6.33-31.97,6.33-1.83,0-3.6-.09-5.27-.27-10.02-1.07-14.53-3.35-16.33-5.69.83,1.5,3.27,3.68,10.08,5.81Z"/></svg>