<?xml version="1.0" encoding="UTF-8"?>
<svg id="Gradient" xmlns="http://www.w3.org/2000/svg" xmlns:xlink="http://www.w3.org/1999/xlink" viewBox="0 0 550 370">
  <defs>
    <linearGradient id="New_Gradient_Swatch" data-name="New Gradient Swatch" x1="533.251" y1="111.314" x2="30.946" y2="111.314" gradientUnits="userSpaceOnUse">
      <stop offset=".008" stop-color="#223a8a"/>
      <stop offset=".43" stop-color="#1195d3"/>
      <stop offset=".611" stop-color="#3bb8b9"/>
      <stop offset=".761" stop-color="#65c2b6"/>
      <stop offset="1" stop-color="#a6d3b3"/>
    </linearGradient>
    <linearGradient id="New_Gradient_Swatch-2" data-name="New Gradient Swatch" x1="533.251" y1="108.418" x2="30.946" y2="108.418" xlink:href="#New_Gradient_Swatch"/>
    <linearGradient id="New_Gradient_Swatch-3" data-name="New Gradient Swatch" x1="533.251" y1="108.145" x2="30.946" y2="108.145" xlink:href="#New_Gradient_Swatch"/>
    <linearGradient id="New_Gradient_Swatch_2" data-name="New Gradient Swatch 2" x1="533.251" y1="111.314" x2="30.946" y2="111.314" gradientUnits="userSpaceOnUse">
      <stop offset=".008" stop-color="#0228a0"/>
      <stop offset=".43" stop-color="#0095d6"/>
      <stop offset=".611" stop-color="#00c6c1"/>
      <stop offset=".837" stop-color="#60d6bb"/>
      <stop offset="1" stop-color="#a1e2b7"/>
    </linearGradient>
    <linearGradient id="New_Gradient_Swatch_2-2" data-name="New Gradient Swatch 2" x1="533.251" y1="108.418" x2="30.946" y2="108.418" xlink:href="#New_Gradient_Swatch_2"/>
    <linearGradient id="New_Gradient_Swatch_2-3" data-name="New Gradient Swatch 2" x1="533.251" y1="108.145" x2="30.946" y2="108.145" xlink:href="#New_Gradient_Swatch_2"/>
  </defs>
  <g>
    <g>
      <path d="m110.485,18.016c-23.113,0-43.638,7.175-59.551,20.781-20.294,17.194-32.081,42.869-32.081,68.8,0,48.763,40.794,88.301,90.607,88.301,14.887,0,26.184-2.393,40.047-8.544l15.122,17.256,29.775-24.625-14.521-16.606c12.838-15.169,19.927-36.282,19.927-57.832,0-49.556-38.769-87.531-89.325-87.531Zm41.587,113.694l-20.059-23.071-30.405,24.112,19.664,23.097c-3.357,1.025-6.176,1.282-11.557,1.282-27.469,0-48.532-21.806-48.532-50.044,0-28.75,21.063-50.581,48.532-50.581,26.7,0,47.994,21.831,47.994,49.044,0,8.456-2.05,17.963-5.638,26.162Z" fill="url(#New_Gradient_Swatch)"/>
      <path d="m480.18,90.661c-22.472-7.021-22.831-7.021-27.75-10.891-2.819-2.101-4.561-6.329-4.561-10.531,0-8.789,7.021-14.76,17.911-14.76,11.941,0,20.73,7.021,20.73,16.861v2.818h42.177c-1.05-33.029-23.549-52.709-60.806-52.709-37.949,0-62.881,20.73-62.881,51.658,0,25.65,15.809,41.459,50.941,51.991,23.907,7.38,30.21,11.967,30.21,21.806,0,9.122-7.38,15.451-17.911,15.451-12.991,0-19.32-6.329-21.447-20.371h-42.869c1.768,33.722,25.317,53.401,63.958,53.401,37.949,0,63.266-21.089,63.266-52.709,0-26.367-14.426-40.768-50.966-52.017Z" fill="url(#New_Gradient_Swatch-2)"/>
      <path d="m326.084,21.576h-89.949s0,173.138,0,173.138h43.693v-52.036h35.505c40.745,0,62.198-27.466,63.38-60.267,1.35-37.434-27.538-60.835-52.63-60.835Zm-14.081,82.288h-30.358v-46.573h30.358c14.175,0,24.804,9.364,24.804,23.287,0,14.174-10.629,23.287-24.804,23.287Z" fill="url(#New_Gradient_Swatch-3)"/>
    </g>
    <g>
      <path d="m53.26,281.07l2.597,3.021-5.246,4.292-2.809-3.339c-2.491,1.166-5.352,1.802-8.426,1.802-10.652,0-18.442-7.631-18.442-18.283s7.79-18.283,18.442-18.283,18.495,7.631,18.495,18.283c0,4.981-1.696,9.327-4.61,12.506Zm-10.175-1.537l-4.027-4.716,5.246-4.24,4.028,4.717c1.166-1.855,1.802-4.187,1.802-6.73,0-6.624-4.24-11.605-10.758-11.605s-10.705,4.981-10.705,11.605c0,6.571,4.187,11.605,10.705,11.605,1.325,0,2.597-.212,3.709-.636Z" fill="#001c77"/>
      <path d="m77.06,286.211v-35.347h16.534c7.684,0,11.871,5.193,11.871,11.394,0,6.147-4.24,11.288-11.871,11.288h-9.009v12.666h-7.525Zm15.527-28.882h-8.002v9.751h8.002c2.967,0,5.193-1.908,5.193-4.875,0-2.915-2.226-4.875-5.193-4.875Z" fill="#001c77"/>
      <path d="m126.57,250.281c10.705,0,18.495,7.631,18.495,18.283s-7.79,18.283-18.495,18.283-18.442-7.631-18.442-18.283,7.79-18.283,18.442-18.283Zm0,6.677c-6.518,0-10.705,4.981-10.705,11.605,0,6.571,4.187,11.605,10.705,11.605s10.758-5.034,10.758-11.605c0-6.624-4.24-11.605-10.758-11.605Z" fill="#001c77"/>
      <path d="m176.251,286.211l-6.2-24.271-6.147,24.271h-8.002l-10.122-35.347h8.426l6.2,25.543,6.73-25.543h5.882l6.677,25.543,6.147-25.543h8.479l-10.069,35.347h-8.002Z" fill="#001c77"/>
      <path d="m197.512,286.211v-35.347h25.013v6.465h-17.488v7.685h17.117v6.465h-17.117v8.214h17.488v6.518h-25.013Z" fill="#001c77"/>
      <path d="m248.687,286.211l-6.942-12.666h-5.512v12.666h-7.525v-35.347h16.534c7.366,0,11.871,4.822,11.871,11.394,0,6.253-3.922,9.592-7.737,10.493l7.949,13.46h-8.638Zm-4.557-28.882h-7.896v9.751h7.896c3.021,0,5.299-1.908,5.299-4.875s-2.279-4.875-5.299-4.875Z" fill="#001c77"/>
      <path d="m278.368,275.506c2.491,2.597,6.359,4.769,11.234,4.769,4.134,0,6.147-1.96,6.147-3.974,0-2.65-3.073-3.551-7.154-4.504-5.776-1.325-13.195-2.915-13.195-10.811,0-5.882,5.088-10.652,13.407-10.652,5.618,0,10.281,1.696,13.778,4.929l-4.187,5.511c-2.861-2.65-6.677-3.869-10.121-3.869-3.392,0-5.193,1.484-5.193,3.604,0,2.385,2.968,3.127,7.048,4.081,5.829,1.325,13.248,3.074,13.248,10.917,0,6.465-4.61,11.34-14.149,11.34-6.783,0-11.658-2.278-14.997-5.617l4.134-5.723Z" fill="#001c77"/>
      <path d="m324.571,250.281c10.705,0,18.495,7.631,18.495,18.283s-7.79,18.283-18.495,18.283c-10.651,0-18.441-7.631-18.441-18.283s7.79-18.283,18.441-18.283Zm0,6.677c-6.518,0-10.704,4.981-10.704,11.605,0,6.571,4.187,11.605,10.704,11.605s10.758-5.034,10.758-11.605c0-6.624-4.239-11.605-10.758-11.605Z" fill="#001c77"/>
      <path d="m348.133,286.211v-35.347h7.524v28.723h14.944v6.624h-22.469Z" fill="#001c77"/>
      <path d="m373.816,250.864h7.631v20.985c0,4.928,2.702,8.32,8.214,8.32,5.405,0,8.108-3.392,8.108-8.32v-20.985h7.631v21.197c0,8.797-5.034,14.785-15.739,14.785-10.811,0-15.845-6.041-15.845-14.732v-21.25Z" fill="#001c77"/>
      <path d="m419.458,286.211v-28.723h-10.333v-6.624h28.192v6.624h-10.281v28.723h-7.578Z" fill="#001c77"/>
      <path d="m441.013,286.211v-35.347h7.524v35.347h-7.524Z" fill="#001c77"/>
      <path d="m472.01,250.281c10.705,0,18.495,7.631,18.495,18.283s-7.79,18.283-18.495,18.283c-10.651,0-18.441-7.631-18.441-18.283s7.79-18.283,18.441-18.283Zm0,6.677c-6.518,0-10.704,4.981-10.704,11.605,0,6.571,4.187,11.605,10.704,11.605s10.758-5.034,10.758-11.605c0-6.624-4.239-11.605-10.758-11.605Z" fill="#001c77"/>
      <path d="m519.948,286.211l-16.853-23.741v23.741h-7.524v-35.347h7.736l16.375,22.893v-22.893h7.525v35.347h-7.26Z" fill="#001c77"/>
      <path d="m22.629,349.811v-35.347h18.601c6.73,0,10.175,4.292,10.175,9.009,0,4.452-2.756,7.419-6.095,8.108,3.763.583,6.783,4.24,6.783,8.691,0,5.299-3.55,9.539-10.281,9.539h-19.184Zm7.525-21.145h9.433c2.544,0,4.133-1.643,4.133-3.921,0-2.173-1.589-3.869-4.133-3.869h-9.433v7.79Zm0,14.732h9.698c2.861,0,4.557-1.643,4.557-4.187,0-2.226-1.59-4.134-4.557-4.134h-9.698v8.32Z" fill="#001c77"/>
      <path d="m65.876,349.811v-14.467l-13.62-20.879h8.585l8.797,14.202,8.691-14.202h8.585l-13.514,20.879v14.467h-7.525Z" fill="#001c77"/>
      <path d="m134.719,344.67l2.597,3.021-5.246,4.292-2.809-3.339c-2.491,1.166-5.352,1.802-8.426,1.802-10.652,0-18.442-7.631-18.442-18.283s7.79-18.283,18.442-18.283,18.495,7.631,18.495,18.283c0,4.981-1.696,9.327-4.61,12.506Zm-10.175-1.537l-4.027-4.716,5.246-4.24,4.028,4.717c1.166-1.855,1.802-4.187,1.802-6.73,0-6.624-4.24-11.605-10.758-11.605s-10.705,4.981-10.705,11.605c0,6.571,4.187,11.605,10.705,11.605,1.325,0,2.597-.212,3.709-.636Z" fill="#001c77"/>
      <path d="m142.673,332.164c0-10.864,8.214-18.283,18.548-18.283,8.055,0,12.56,4.239,15.05,8.638l-6.465,3.18c-1.484-2.861-4.664-5.14-8.585-5.14-6.147,0-10.811,4.928-10.811,11.605s4.663,11.605,10.811,11.605c3.921,0,7.101-2.226,8.585-5.14l6.465,3.126c-2.544,4.398-6.995,8.691-15.05,8.691-10.334,0-18.548-7.419-18.548-18.283Z" fill="#001c77"/>
      <path d="m180.441,349.811v-35.347h25.013v6.465h-17.488v7.684h17.117v6.465h-17.117v8.214h17.488v6.518h-25.013Z" fill="#001c77"/>
      <path d="m211.636,349.811v-35.347h7.525v28.723h14.944v6.624h-22.469Z" fill="#001c77"/>
      <path d="m237.998,349.811v-35.347h7.525v28.723h14.944v6.624h-22.469Z" fill="#001c77"/>
      <path d="m267.36,339.106c2.491,2.597,6.359,4.77,11.235,4.77,4.134,0,6.147-1.961,6.147-3.975,0-2.65-3.074-3.551-7.154-4.505-5.776-1.325-13.196-2.915-13.196-10.811,0-5.882,5.087-10.652,13.408-10.652,5.617,0,10.28,1.696,13.778,4.929l-4.187,5.511c-2.861-2.65-6.678-3.869-10.122-3.869-3.392,0-5.193,1.484-5.193,3.604,0,2.385,2.968,3.127,7.048,4.081,5.83,1.325,13.249,3.074,13.249,10.917,0,6.465-4.61,11.34-14.149,11.34-6.783,0-11.659-2.278-14.997-5.617l4.133-5.723Z" fill="#001c77"/>
    </g>
  </g>
  <g>
    <path d="m110.485,18.016c-23.113,0-43.638,7.175-59.551,20.781-20.294,17.194-32.081,42.869-32.081,68.8,0,48.763,40.794,88.301,90.607,88.301,14.887,0,26.184-2.393,40.047-8.544l15.122,17.256,29.775-24.625-14.521-16.606c12.838-15.169,19.927-36.282,19.927-57.832,0-49.556-38.769-87.531-89.325-87.531Zm41.587,113.694l-20.059-23.071-30.405,24.112,19.664,23.097c-3.357,1.025-6.176,1.282-11.557,1.282-27.469,0-48.532-21.806-48.532-50.044,0-28.75,21.063-50.581,48.532-50.581,26.7,0,47.994,21.831,47.994,49.044,0,8.456-2.05,17.963-5.638,26.162Z" fill="url(#New_Gradient_Swatch_2)"/>
    <path d="m480.18,90.661c-22.472-7.021-22.831-7.021-27.75-10.891-2.819-2.101-4.561-6.329-4.561-10.531,0-8.789,7.021-14.76,17.911-14.76,11.941,0,20.73,7.021,20.73,16.861v2.818h42.177c-1.05-33.029-23.549-52.709-60.806-52.709-37.949,0-62.881,20.73-62.881,51.658,0,25.65,15.809,41.459,50.941,51.991,23.907,7.38,30.21,11.967,30.21,21.806,0,9.122-7.38,15.451-17.911,15.451-12.991,0-19.32-6.329-21.447-20.371h-42.869c1.768,33.722,25.317,53.401,63.958,53.401,37.949,0,63.266-21.089,63.266-52.709,0-26.367-14.426-40.768-50.966-52.017Z" fill="url(#New_Gradient_Swatch_2-2)"/>
    <path d="m326.084,21.576h-89.949s0,173.138,0,173.138h43.693v-52.036h35.505c40.745,0,62.198-27.466,63.38-60.267,1.35-37.434-27.538-60.835-52.63-60.835Zm-14.081,82.288h-30.358v-46.573h30.358c14.175,0,24.804,9.364,24.804,23.287,0,14.174-10.629,23.287-24.804,23.287Z" fill="url(#New_Gradient_Swatch_2-3)"/>
  </g>
</svg>